<mxfile host="Electron" modified="2023-08-22T04:45:58.570Z" agent="Mozilla/5.0 (Windows NT 10.0; Win64; x64) AppleWebKit/537.36 (KHTML, like Gecko) draw.io/21.6.8 Chrome/114.0.5735.289 Electron/25.5.0 Safari/537.36" etag="-R4RMxiMpRj6Ti7m_Lli" version="21.6.8" type="device">
  <diagram name="17.25" id="gBh-pHS-m51HAQLTKLnC">
    <mxGraphModel dx="880" dy="545" grid="1" gridSize="10" guides="1" tooltips="1" connect="1" arrows="1" fold="1" page="1" pageScale="1" pageWidth="1169" pageHeight="827" math="0" shadow="0">
      <root>
        <mxCell id="0" />
        <mxCell id="1" value="uml" parent="0" />
        <mxCell id="MtkCHq3pYS-Y4_Uiom9D-1" value="&lt;b&gt;sd&lt;/b&gt;&amp;nbsp;N" style="shape=umlFrame;whiteSpace=wrap;html=1;pointerEvents=0;recursiveResize=0;container=1;collapsible=0;width=80;fontFamily=Helvetica;fontSize=11;fontColor=default;height=30;" vertex="1" parent="1">
          <mxGeometry x="200" width="230" height="180" as="geometry" />
        </mxCell>
        <mxCell id="MtkCHq3pYS-Y4_Uiom9D-6" value="s[k]: B" style="shape=umlLifeline;perimeter=lifelinePerimeter;whiteSpace=wrap;html=1;container=1;dropTarget=0;collapsible=0;recursiveResize=0;outlineConnect=0;portConstraint=eastwest;newEdgeStyle={&quot;edgeStyle&quot;:&quot;elbowEdgeStyle&quot;,&quot;elbow&quot;:&quot;vertical&quot;,&quot;curved&quot;:0,&quot;rounded&quot;:0};fontFamily=Helvetica;fontSize=11;fontColor=default;" vertex="1" parent="MtkCHq3pYS-Y4_Uiom9D-1">
          <mxGeometry x="140" y="40" width="70" height="130" as="geometry" />
        </mxCell>
        <mxCell id="MtkCHq3pYS-Y4_Uiom9D-7" style="edgeStyle=elbowEdgeStyle;shape=connector;curved=0;rounded=0;orthogonalLoop=1;jettySize=auto;elbow=vertical;html=1;labelBackgroundColor=none;strokeColor=default;fontFamily=Helvetica;fontSize=11;fontColor=default;endArrow=open;endFill=0;endSize=12;" edge="1" parent="MtkCHq3pYS-Y4_Uiom9D-1">
          <mxGeometry relative="1" as="geometry">
            <mxPoint x="54.5" y="140" as="sourcePoint" />
            <mxPoint x="174.5" y="140" as="targetPoint" />
          </mxGeometry>
        </mxCell>
        <mxCell id="MtkCHq3pYS-Y4_Uiom9D-8" value="m3" style="edgeLabel;html=1;align=center;verticalAlign=middle;resizable=0;points=[];fontSize=11;fontFamily=Helvetica;fontColor=default;" vertex="1" connectable="0" parent="MtkCHq3pYS-Y4_Uiom9D-7">
          <mxGeometry x="0.275" y="-3" relative="1" as="geometry">
            <mxPoint x="-16" y="-20" as="offset" />
          </mxGeometry>
        </mxCell>
        <mxCell id="MtkCHq3pYS-Y4_Uiom9D-9" value="s[u]: B" style="shape=umlLifeline;perimeter=lifelinePerimeter;whiteSpace=wrap;html=1;container=1;dropTarget=0;collapsible=0;recursiveResize=0;outlineConnect=0;portConstraint=eastwest;newEdgeStyle={&quot;edgeStyle&quot;:&quot;elbowEdgeStyle&quot;,&quot;elbow&quot;:&quot;vertical&quot;,&quot;curved&quot;:0,&quot;rounded&quot;:0};fontFamily=Helvetica;fontSize=11;fontColor=default;" vertex="1" parent="MtkCHq3pYS-Y4_Uiom9D-1">
          <mxGeometry x="20" y="40" width="70" height="130" as="geometry" />
        </mxCell>
        <mxCell id="MtkCHq3pYS-Y4_Uiom9D-12" style="edgeStyle=elbowEdgeStyle;shape=connector;curved=0;rounded=0;orthogonalLoop=1;jettySize=auto;elbow=vertical;html=1;labelBackgroundColor=none;strokeColor=default;fontFamily=Helvetica;fontSize=11;fontColor=default;endArrow=open;endFill=0;endSize=12;" edge="1" parent="MtkCHq3pYS-Y4_Uiom9D-1">
          <mxGeometry relative="1" as="geometry">
            <mxPoint y="110" as="sourcePoint" />
            <mxPoint x="54.5" y="110" as="targetPoint" />
          </mxGeometry>
        </mxCell>
        <mxCell id="MtkCHq3pYS-Y4_Uiom9D-13" value="m3" style="edgeLabel;html=1;align=center;verticalAlign=middle;resizable=0;points=[];fontSize=11;fontFamily=Helvetica;fontColor=default;" vertex="1" connectable="0" parent="MtkCHq3pYS-Y4_Uiom9D-12">
          <mxGeometry x="0.275" y="-3" relative="1" as="geometry">
            <mxPoint x="-11" y="-19" as="offset" />
          </mxGeometry>
        </mxCell>
        <mxCell id="MtkCHq3pYS-Y4_Uiom9D-15" value="Figure 17.25 Overview of Metamodel elements of a Sequence Diagram" style="text;html=1;align=left;verticalAlign=middle;resizable=0;points=[];autosize=1;strokeColor=none;fillColor=none;fontSize=11;fontFamily=Helvetica;fontColor=default;" vertex="1" parent="1">
          <mxGeometry y="450" width="370" height="30" as="geometry" />
        </mxCell>
        <mxCell id="MtkCHq3pYS-Y4_Uiom9D-38" value="" style="edgeStyle=orthogonalEdgeStyle;rounded=0;orthogonalLoop=1;jettySize=auto;html=1;labelBackgroundColor=none;endArrow=open;endFill=0;endSize=12;" edge="1" parent="1" source="MtkCHq3pYS-Y4_Uiom9D-41" target="MtkCHq3pYS-Y4_Uiom9D-42">
          <mxGeometry relative="1" as="geometry">
            <Array as="points">
              <mxPoint x="325" y="280" />
              <mxPoint x="215" y="280" />
            </Array>
          </mxGeometry>
        </mxCell>
        <mxCell id="MtkCHq3pYS-Y4_Uiom9D-39" value="" style="edgeStyle=orthogonalEdgeStyle;rounded=0;orthogonalLoop=1;jettySize=auto;html=1;labelBackgroundColor=none;endArrow=open;endFill=0;endSize=12;" edge="1" parent="1" source="MtkCHq3pYS-Y4_Uiom9D-41" target="MtkCHq3pYS-Y4_Uiom9D-43">
          <mxGeometry relative="1" as="geometry">
            <Array as="points">
              <mxPoint x="325" y="280" />
              <mxPoint x="145" y="280" />
            </Array>
          </mxGeometry>
        </mxCell>
        <mxCell id="MtkCHq3pYS-Y4_Uiom9D-40" value="" style="edgeStyle=orthogonalEdgeStyle;rounded=0;orthogonalLoop=1;jettySize=auto;html=1;labelBackgroundColor=none;endArrow=open;endFill=0;endSize=12;startArrow=diamondThin;startFill=1;startSize=12;" edge="1" parent="1" source="MtkCHq3pYS-Y4_Uiom9D-41" target="MtkCHq3pYS-Y4_Uiom9D-44">
          <mxGeometry relative="1" as="geometry">
            <Array as="points">
              <mxPoint x="325" y="280" />
              <mxPoint x="45" y="280" />
            </Array>
          </mxGeometry>
        </mxCell>
        <mxCell id="MtkCHq3pYS-Y4_Uiom9D-52" style="edgeStyle=orthogonalEdgeStyle;shape=connector;rounded=0;orthogonalLoop=1;jettySize=auto;html=1;exitX=0.75;exitY=1;exitDx=0;exitDy=0;entryX=0.75;entryY=0;entryDx=0;entryDy=0;labelBackgroundColor=none;strokeColor=default;fontFamily=Helvetica;fontSize=11;fontColor=default;startArrow=diamondThin;startFill=1;endArrow=open;endFill=0;startSize=12;endSize=12;" edge="1" parent="1" source="MtkCHq3pYS-Y4_Uiom9D-41" target="MtkCHq3pYS-Y4_Uiom9D-46">
          <mxGeometry relative="1" as="geometry">
            <Array as="points">
              <mxPoint x="348" y="280" />
              <mxPoint x="363" y="280" />
            </Array>
          </mxGeometry>
        </mxCell>
        <mxCell id="MtkCHq3pYS-Y4_Uiom9D-53" style="edgeStyle=orthogonalEdgeStyle;shape=connector;rounded=0;orthogonalLoop=1;jettySize=auto;html=1;exitX=0.75;exitY=1;exitDx=0;exitDy=0;entryX=0.75;entryY=0;entryDx=0;entryDy=0;labelBackgroundColor=none;strokeColor=default;fontFamily=Helvetica;fontSize=11;fontColor=default;startArrow=diamondThin;startFill=1;endArrow=open;endFill=0;startSize=12;endSize=12;" edge="1" parent="1" source="MtkCHq3pYS-Y4_Uiom9D-41" target="MtkCHq3pYS-Y4_Uiom9D-48">
          <mxGeometry relative="1" as="geometry">
            <Array as="points">
              <mxPoint x="348" y="280" />
              <mxPoint x="423" y="280" />
            </Array>
          </mxGeometry>
        </mxCell>
        <mxCell id="MtkCHq3pYS-Y4_Uiom9D-54" style="edgeStyle=orthogonalEdgeStyle;shape=connector;rounded=0;orthogonalLoop=1;jettySize=auto;html=1;exitX=0.75;exitY=1;exitDx=0;exitDy=0;entryX=0.75;entryY=0;entryDx=0;entryDy=0;labelBackgroundColor=none;strokeColor=default;fontFamily=Helvetica;fontSize=11;fontColor=default;startArrow=diamondThin;startFill=1;endArrow=open;endFill=0;startSize=12;endSize=12;" edge="1" parent="1" source="MtkCHq3pYS-Y4_Uiom9D-41" target="MtkCHq3pYS-Y4_Uiom9D-50">
          <mxGeometry relative="1" as="geometry">
            <Array as="points">
              <mxPoint x="348" y="280" />
              <mxPoint x="483" y="280" />
            </Array>
          </mxGeometry>
        </mxCell>
        <mxCell id="MtkCHq3pYS-Y4_Uiom9D-58" style="edgeStyle=orthogonalEdgeStyle;shape=connector;rounded=0;orthogonalLoop=1;jettySize=auto;html=1;entryX=0.5;entryY=0;entryDx=0;entryDy=0;labelBackgroundColor=none;strokeColor=default;fontFamily=Helvetica;fontSize=11;fontColor=default;startArrow=diamondThin;startFill=1;endArrow=open;endFill=0;startSize=12;endSize=12;" edge="1" parent="1" source="MtkCHq3pYS-Y4_Uiom9D-41" target="MtkCHq3pYS-Y4_Uiom9D-56">
          <mxGeometry relative="1" as="geometry">
            <Array as="points">
              <mxPoint x="400" y="215" />
              <mxPoint x="400" y="240" />
              <mxPoint x="615" y="240" />
            </Array>
          </mxGeometry>
        </mxCell>
        <mxCell id="MtkCHq3pYS-Y4_Uiom9D-59" style="edgeStyle=orthogonalEdgeStyle;shape=connector;rounded=0;orthogonalLoop=1;jettySize=auto;html=1;entryX=0.25;entryY=0;entryDx=0;entryDy=0;labelBackgroundColor=none;strokeColor=default;fontFamily=Helvetica;fontSize=11;fontColor=default;startArrow=diamondThin;startFill=1;endArrow=open;endFill=0;startSize=12;endSize=12;" edge="1" parent="1" source="MtkCHq3pYS-Y4_Uiom9D-41" target="MtkCHq3pYS-Y4_Uiom9D-55">
          <mxGeometry relative="1" as="geometry">
            <Array as="points">
              <mxPoint x="400" y="215" />
              <mxPoint x="400" y="240" />
              <mxPoint x="548" y="240" />
            </Array>
          </mxGeometry>
        </mxCell>
        <mxCell id="MtkCHq3pYS-Y4_Uiom9D-41" value="&lt;u&gt;N:Interaction&lt;/u&gt;" style="whiteSpace=wrap;html=1;" vertex="1" parent="1">
          <mxGeometry x="280" y="200" width="90" height="30" as="geometry" />
        </mxCell>
        <mxCell id="MtkCHq3pYS-Y4_Uiom9D-42" value="&lt;u&gt;s[k]:Lifeline&lt;/u&gt;" style="whiteSpace=wrap;html=1;" vertex="1" parent="1">
          <mxGeometry x="175" y="360" width="80" height="30" as="geometry" />
        </mxCell>
        <mxCell id="MtkCHq3pYS-Y4_Uiom9D-43" value="&lt;u&gt;s[u]:Lifeline&lt;/u&gt;" style="whiteSpace=wrap;html=1;" vertex="1" parent="1">
          <mxGeometry x="105" y="310" width="80" height="30" as="geometry" />
        </mxCell>
        <mxCell id="MtkCHq3pYS-Y4_Uiom9D-44" value="&lt;u&gt;in_m3:Gate&lt;/u&gt;" style="whiteSpace=wrap;html=1;" vertex="1" parent="1">
          <mxGeometry y="310" width="90" height="30" as="geometry" />
        </mxCell>
        <mxCell id="MtkCHq3pYS-Y4_Uiom9D-46" value="&lt;u&gt;rec_m3_on_su:&lt;br&gt;OccurenceSpecification&lt;br&gt;&lt;/u&gt;" style="whiteSpace=wrap;html=1;" vertex="1" parent="1">
          <mxGeometry x="250" y="310" width="150" height="40" as="geometry" />
        </mxCell>
        <mxCell id="MtkCHq3pYS-Y4_Uiom9D-48" value="&lt;u&gt;send_m3_on_su:&lt;br&gt;OccurenceSpecification&lt;br&gt;&lt;/u&gt;" style="whiteSpace=wrap;html=1;" vertex="1" parent="1">
          <mxGeometry x="310" y="360" width="150" height="40" as="geometry" />
        </mxCell>
        <mxCell id="MtkCHq3pYS-Y4_Uiom9D-50" value="&lt;u&gt;rec_m3_on_sk:&lt;br&gt;OccurenceSpecification&lt;br&gt;&lt;/u&gt;" style="whiteSpace=wrap;html=1;" vertex="1" parent="1">
          <mxGeometry x="370" y="410" width="150" height="40" as="geometry" />
        </mxCell>
        <mxCell id="MtkCHq3pYS-Y4_Uiom9D-55" value="&lt;u&gt;m3_2:Message&lt;br&gt;&lt;/u&gt;" style="whiteSpace=wrap;html=1;" vertex="1" parent="1">
          <mxGeometry x="520" y="360" width="110" height="30" as="geometry" />
        </mxCell>
        <mxCell id="MtkCHq3pYS-Y4_Uiom9D-56" value="&lt;u&gt;m3_1:Message&lt;br&gt;&lt;/u&gt;" style="whiteSpace=wrap;html=1;" vertex="1" parent="1">
          <mxGeometry x="560" y="310" width="110" height="30" as="geometry" />
        </mxCell>
        <mxCell id="MtkCHq3pYS-Y4_Uiom9D-16" value="annotation" parent="0" />
        <mxCell id="MtkCHq3pYS-Y4_Uiom9D-17" value="Lifeline" style="text;html=1;align=left;verticalAlign=middle;resizable=0;points=[];autosize=1;strokeColor=none;fillColor=none;fontColor=#FF0000;fontStyle=2;fontSize=12;container=0;" vertex="1" parent="MtkCHq3pYS-Y4_Uiom9D-16">
          <mxGeometry x="40" y="40" width="60" height="30" as="geometry" />
        </mxCell>
        <mxCell id="MtkCHq3pYS-Y4_Uiom9D-18" style="rounded=0;orthogonalLoop=1;jettySize=auto;html=1;endArrow=blockThin;endFill=0;endSize=12;strokeColor=#FF0000;" edge="1" parent="MtkCHq3pYS-Y4_Uiom9D-16">
          <mxGeometry relative="1" as="geometry">
            <mxPoint x="223" y="62" as="targetPoint" />
            <mxPoint x="90" y="55" as="sourcePoint" />
          </mxGeometry>
        </mxCell>
        <mxCell id="MtkCHq3pYS-Y4_Uiom9D-20" value="Interaction" style="text;html=1;align=left;verticalAlign=middle;resizable=0;points=[];autosize=1;strokeColor=none;fillColor=none;fontColor=#FF0000;fontStyle=2;fontSize=12;container=0;" vertex="1" parent="MtkCHq3pYS-Y4_Uiom9D-16">
          <mxGeometry x="40" y="10" width="80" height="30" as="geometry" />
        </mxCell>
        <mxCell id="MtkCHq3pYS-Y4_Uiom9D-21" style="rounded=0;orthogonalLoop=1;jettySize=auto;html=1;endArrow=blockThin;endFill=0;endSize=12;strokeColor=#FF0000;" edge="1" parent="MtkCHq3pYS-Y4_Uiom9D-16">
          <mxGeometry relative="1" as="geometry">
            <mxPoint x="203" y="16" as="targetPoint" />
            <mxPoint x="102" y="24" as="sourcePoint" />
          </mxGeometry>
        </mxCell>
        <mxCell id="MtkCHq3pYS-Y4_Uiom9D-22" value="(formal) Gate" style="text;html=1;align=left;verticalAlign=middle;resizable=0;points=[];autosize=1;strokeColor=none;fillColor=none;fontColor=#FF0000;fontStyle=2;fontSize=12;container=0;" vertex="1" parent="MtkCHq3pYS-Y4_Uiom9D-16">
          <mxGeometry x="40" y="110" width="90" height="30" as="geometry" />
        </mxCell>
        <mxCell id="MtkCHq3pYS-Y4_Uiom9D-23" value="OccurrenceSpecification" style="text;html=1;align=left;verticalAlign=middle;resizable=0;points=[];autosize=1;strokeColor=none;fillColor=none;fontColor=#FF0000;fontStyle=2;fontSize=12;container=0;" vertex="1" parent="MtkCHq3pYS-Y4_Uiom9D-16">
          <mxGeometry x="40" y="180" width="150" height="30" as="geometry" />
        </mxCell>
        <mxCell id="MtkCHq3pYS-Y4_Uiom9D-24" value="(receiving) OccurrenceSpecification" style="text;html=1;align=left;verticalAlign=middle;resizable=0;points=[];autosize=1;strokeColor=none;fillColor=none;fontColor=#FF0000;fontStyle=2;fontSize=12;container=0;" vertex="1" parent="MtkCHq3pYS-Y4_Uiom9D-16">
          <mxGeometry x="410" y="100" width="210" height="30" as="geometry" />
        </mxCell>
        <mxCell id="MtkCHq3pYS-Y4_Uiom9D-25" value="Message" style="text;html=1;align=left;verticalAlign=middle;resizable=0;points=[];autosize=1;strokeColor=none;fillColor=none;fontColor=#FF0000;fontStyle=2;fontSize=12;container=0;" vertex="1" parent="MtkCHq3pYS-Y4_Uiom9D-16">
          <mxGeometry x="450" y="60" width="70" height="30" as="geometry" />
        </mxCell>
        <mxCell id="MtkCHq3pYS-Y4_Uiom9D-26" style="rounded=0;orthogonalLoop=1;jettySize=auto;html=1;endArrow=blockThin;endFill=0;endSize=12;strokeColor=#FF0000;exitX=0.889;exitY=0.333;exitDx=0;exitDy=0;exitPerimeter=0;" edge="1" parent="MtkCHq3pYS-Y4_Uiom9D-16" source="MtkCHq3pYS-Y4_Uiom9D-22">
          <mxGeometry relative="1" as="geometry">
            <mxPoint x="199" y="110" as="targetPoint" />
            <mxPoint x="100" y="65" as="sourcePoint" />
          </mxGeometry>
        </mxCell>
        <mxCell id="MtkCHq3pYS-Y4_Uiom9D-27" style="rounded=0;orthogonalLoop=1;jettySize=auto;html=1;endArrow=blockThin;endFill=0;endSize=12;strokeColor=#FF0000;exitX=0.933;exitY=0;exitDx=0;exitDy=0;exitPerimeter=0;" edge="1" parent="MtkCHq3pYS-Y4_Uiom9D-16" source="MtkCHq3pYS-Y4_Uiom9D-23">
          <mxGeometry relative="1" as="geometry">
            <mxPoint x="253" y="111" as="targetPoint" />
            <mxPoint x="130" y="130" as="sourcePoint" />
          </mxGeometry>
        </mxCell>
        <mxCell id="MtkCHq3pYS-Y4_Uiom9D-28" style="rounded=0;orthogonalLoop=1;jettySize=auto;html=1;endArrow=blockThin;endFill=0;endSize=12;strokeColor=#FF0000;exitX=0.005;exitY=0.9;exitDx=0;exitDy=0;exitPerimeter=0;" edge="1" parent="MtkCHq3pYS-Y4_Uiom9D-16" source="MtkCHq3pYS-Y4_Uiom9D-24">
          <mxGeometry relative="1" as="geometry">
            <mxPoint x="375" y="140" as="targetPoint" />
            <mxPoint x="130" y="130" as="sourcePoint" />
          </mxGeometry>
        </mxCell>
        <mxCell id="MtkCHq3pYS-Y4_Uiom9D-29" style="rounded=0;orthogonalLoop=1;jettySize=auto;html=1;endArrow=blockThin;endFill=0;endSize=12;strokeColor=#FF0000;exitX=-0.043;exitY=0.567;exitDx=0;exitDy=0;exitPerimeter=0;" edge="1" parent="MtkCHq3pYS-Y4_Uiom9D-16" source="MtkCHq3pYS-Y4_Uiom9D-25">
          <mxGeometry relative="1" as="geometry">
            <mxPoint x="329" y="122" as="targetPoint" />
            <mxPoint x="421" y="137" as="sourcePoint" />
          </mxGeometry>
        </mxCell>
      </root>
    </mxGraphModel>
  </diagram>
</mxfile>
